<svg xmlns="http://www.w3.org/2000/svg" xmlns:xlink="http://www.w3.org/1999/xlink" version="1.1" class="marks" width="182" height="162" viewBox="0 0 182 162"><rect width="182" height="162" fill="white"/><g fill="none" stroke-miterlimit="10" transform="translate(69,5)"><g class="mark-group role-frame root" role="graphics-object" aria-roledescription="group mark container"><g transform="translate(0,0)"><path class="background" aria-hidden="true" d="M0.5,0.5h103v120h-103Z" stroke="#ddd"/><g><g class="mark-group role-axis" aria-hidden="true"><g transform="translate(0.5,120.5)"><path class="background" aria-hidden="true" d="M0,0h0v0h0Z" pointer-events="none"/><g><g class="mark-rule role-axis-grid" pointer-events="none"><line transform="translate(3,-120)" x2="0" y2="120" stroke="#ddd" stroke-width="1" opacity="1"/><line transform="translate(32,-120)" x2="0" y2="120" stroke="#ddd" stroke-width="1" opacity="1"/><line transform="translate(62,-120)" x2="0" y2="120" stroke="#ddd" stroke-width="1" opacity="1"/><line transform="translate(92,-120)" x2="0" y2="120" stroke="#ddd" stroke-width="1" opacity="1"/></g></g><path class="foreground" aria-hidden="true" d="" pointer-events="none" display="none"/></g></g><g class="mark-group role-axis" aria-hidden="true"><g transform="translate(0.5,0.5)"><path class="background" aria-hidden="true" d="M0,0h0v0h0Z" pointer-events="none"/><g><g class="mark-rule role-axis-grid" pointer-events="none"><line transform="translate(0,93)" x2="103" y2="0" stroke="#ddd" stroke-width="1" opacity="1"/><line transform="translate(0,40)" x2="103" y2="0" stroke="#ddd" stroke-width="1" opacity="1"/></g></g><path class="foreground" aria-hidden="true" d="" pointer-events="none" display="none"/></g></g><g class="mark-group role-axis" role="graphics-symbol" aria-roledescription="axis" aria-label="X-axis titled 'Predicted median_house_value' for a linear scale with values from 91,379 to 436,514"><g transform="translate(0.5,120.5)"><path class="background" aria-hidden="true" d="M0,0h0v0h0Z" pointer-events="none"/><g><g class="mark-rule role-axis-tick" pointer-events="none"><line transform="translate(3,0)" x2="0" y2="5" stroke="#888" stroke-width="1" opacity="1"/><line transform="translate(32,0)" x2="0" y2="5" stroke="#888" stroke-width="1" opacity="1"/><line transform="translate(62,0)" x2="0" y2="5" stroke="#888" stroke-width="1" opacity="1"/><line transform="translate(92,0)" x2="0" y2="5" stroke="#888" stroke-width="1" opacity="1"/></g><g class="mark-text role-axis-label" pointer-events="none"><text text-anchor="middle" transform="translate(2.5728052078061534,15)" font-family="sans-serif" font-size="10px" fill="#000" opacity="1">100,000</text><text text-anchor="middle" transform="translate(32.41621049254746,15)" font-family="sans-serif" font-size="10px" fill="#000" opacity="0">200,000</text><text text-anchor="middle" transform="translate(62.25961577728877,15)" font-family="sans-serif" font-size="10px" fill="#000" opacity="0">300,000</text><text text-anchor="middle" transform="translate(92.10302106203008,15)" font-family="sans-serif" font-size="10px" fill="#000" opacity="1">400,000</text></g><g class="mark-rule role-axis-domain" pointer-events="none"><line transform="translate(0,0)" x2="103" y2="0" stroke="#888" stroke-width="1" opacity="1"/></g><g class="mark-text role-axis-title" pointer-events="none"><text text-anchor="middle" transform="translate(51.5,30)" font-family="sans-serif" font-size="11px" font-weight="bold" fill="#000" opacity="1">Predicted median_house_value</text></g></g><path class="foreground" aria-hidden="true" d="" pointer-events="none" display="none"/></g></g><g class="mark-group role-axis" role="graphics-symbol" aria-roledescription="axis" aria-label="Y-axis titled 'Residuals' for a linear scale with values from −300,000 to 150,000"><g transform="translate(0.5,0.5)"><path class="background" aria-hidden="true" d="M0,0h0v0h0Z" pointer-events="none"/><g><g class="mark-rule role-axis-tick" pointer-events="none"><line transform="translate(0,93)" x2="-5" y2="0" stroke="#888" stroke-width="1" opacity="1"/><line transform="translate(0,40)" x2="-5" y2="0" stroke="#888" stroke-width="1" opacity="1"/></g><g class="mark-text role-axis-label" pointer-events="none"><text text-anchor="end" transform="translate(-7,96.33333333333333)" font-family="sans-serif" font-size="10px" fill="#000" opacity="1">−200,000</text><text text-anchor="end" transform="translate(-7,43.00000000000001)" font-family="sans-serif" font-size="10px" fill="#000" opacity="1">0</text></g><g class="mark-rule role-axis-domain" pointer-events="none"><line transform="translate(0,120)" x2="0" y2="-120" stroke="#888" stroke-width="1" opacity="1"/></g><g class="mark-text role-axis-title" pointer-events="none"><text text-anchor="middle" transform="translate(-52.9873046875,60) rotate(-90) translate(0,-2)" font-family="sans-serif" font-size="11px" font-weight="bold" fill="#000" opacity="1">Residuals</text></g></g><path class="foreground" aria-hidden="true" d="" pointer-events="none" display="none"/></g></g><g class="mark-symbol role-mark marks" role="graphics-object" aria-roledescription="symbol mark container"><path aria-label="Predicted median_house_value: 156720.112245; Residuals: 3620.11224459" role="graphics-symbol" aria-roledescription="point" transform="translate(19.50001818292018,39.03463673477523)" d="M2.739,0A2.739,2.739,0,1,1,-2.739,0A2.739,2.739,0,1,1,2.739,0" stroke="#4c78a8" stroke-width="2" opacity="0.7"/><path aria-label="Predicted median_house_value: 174442.293434; Residuals: −6457.70656577" role="graphics-symbol" aria-roledescription="point" transform="translate(24.788920540638824,41.7220550842062)" d="M2.739,0A2.739,2.739,0,1,1,-2.739,0A2.739,2.739,0,1,1,2.739,0" stroke="#4c78a8" stroke-width="2" opacity="0.7"/><path aria-label="Predicted median_house_value: 208928.587; Residuals: 25928.5870004" role="graphics-symbol" aria-roledescription="point" transform="translate(35.0808048972665,33.085710133236546)" d="M2.739,0A2.739,2.739,0,1,1,-2.739,0A2.739,2.739,0,1,1,2.739,0" stroke="#4c78a8" stroke-width="2" opacity="0.7"/><path aria-label="Predicted median_house_value: 186106.467456; Residuals: −26393.5325439" role="graphics-symbol" aria-roledescription="point" transform="translate(28.26990726710709,47.0382753450372)" d="M2.739,0A2.739,2.739,0,1,1,-2.739,0A2.739,2.739,0,1,1,2.739,0" stroke="#4c78a8" stroke-width="2" opacity="0.7"/><path aria-label="Predicted median_house_value: 214120.5669; Residuals: 41920.5669003" role="graphics-symbol" aria-roledescription="point" transform="translate(36.63026850112127,28.821182159907266)" d="M2.739,0A2.739,2.739,0,1,1,-2.739,0A2.739,2.739,0,1,1,2.739,0" stroke="#4c78a8" stroke-width="2" opacity="0.7"/><path aria-label="Predicted median_house_value: 152548.956757; Residuals: 55248.9567569" role="graphics-symbol" aria-roledescription="point" transform="translate(18.255203345657318,25.266944864839132)" d="M2.739,0A2.739,2.739,0,1,1,-2.739,0A2.739,2.739,0,1,1,2.739,0" stroke="#4c78a8" stroke-width="2" opacity="0.7"/><path aria-label="Predicted median_house_value: 157456.444608; Residuals: 85956.4446075" role="graphics-symbol" aria-roledescription="point" transform="translate(19.71976483423238,17.078281437993642)" d="M2.739,0A2.739,2.739,0,1,1,-2.739,0A2.739,2.739,0,1,1,2.739,0" stroke="#4c78a8" stroke-width="2" opacity="0.7"/><path aria-label="Predicted median_house_value: 283591.015119; Residuals: −42408.9848811" role="graphics-symbol" aria-roledescription="point" transform="translate(57.36261591611611,51.30906263495468)" d="M2.739,0A2.739,2.739,0,1,1,-2.739,0A2.739,2.739,0,1,1,2.739,0" stroke="#4c78a8" stroke-width="2" opacity="0.7"/><path aria-label="Predicted median_house_value: 189788.129271; Residuals: −11911.8707292" role="graphics-symbol" aria-roledescription="point" transform="translate(29.368640523668102,43.17649886112925)" d="M2.739,0A2.739,2.739,0,1,1,-2.739,0A2.739,2.739,0,1,1,2.739,0" stroke="#4c78a8" stroke-width="2" opacity="0.7"/><path aria-label="Predicted median_house_value: 187675.357434; Residuals: 62675.3574339" role="graphics-symbol" aria-roledescription="point" transform="translate(28.73811746166434,23.286571350947625)" d="M2.739,0A2.739,2.739,0,1,1,-2.739,0A2.739,2.739,0,1,1,2.739,0" stroke="#4c78a8" stroke-width="2" opacity="0.7"/><path aria-label="Predicted median_house_value: 202506.597358; Residuals: 35706.5973578" role="graphics-symbol" aria-roledescription="point" transform="translate(33.164264500878836,30.478240704598708)" d="M2.739,0A2.739,2.739,0,1,1,-2.739,0A2.739,2.739,0,1,1,2.739,0" stroke="#4c78a8" stroke-width="2" opacity="0.7"/><path aria-label="Predicted median_house_value: 112310.066605; Residuals: −1589.93339468" role="graphics-symbol" aria-roledescription="point" transform="translate(6.24654827565307,40.42398223858162)" d="M2.739,0A2.739,2.739,0,1,1,-2.739,0A2.739,2.739,0,1,1,2.739,0" stroke="#4c78a8" stroke-width="2" opacity="0.7"/><path aria-label="Predicted median_house_value: 181353.77675; Residuals: −123646.22325" role="graphics-symbol" aria-roledescription="point" transform="translate(26.851542517728344,72.9723262000214)" d="M2.739,0A2.739,2.739,0,1,1,-2.739,0A2.739,2.739,0,1,1,2.739,0" stroke="#4c78a8" stroke-width="2" opacity="0.7"/><path aria-label="Predicted median_house_value: 187269.537893; Residuals: 96269.537893" role="graphics-symbol" aria-roledescription="point" transform="translate(28.61700709133887,14.328123228529908)" d="M2.739,0A2.739,2.739,0,1,1,-2.739,0A2.739,2.739,0,1,1,2.739,0" stroke="#4c78a8" stroke-width="2" opacity="0.7"/><path aria-label="Predicted median_house_value: 268433.44608; Residuals: −10866.5539203" role="graphics-symbol" aria-roledescription="point" transform="translate(52.83908115643373,42.8977477120742)" d="M2.739,0A2.739,2.739,0,1,1,-2.739,0A2.739,2.739,0,1,1,2.739,0" stroke="#4c78a8" stroke-width="2" opacity="0.7"/><path aria-label="Predicted median_house_value: 180165.604073; Residuals: −165834.395927" role="graphics-symbol" aria-roledescription="point" transform="translate(26.49695133038366,84.22250558043412)" d="M2.739,0A2.739,2.739,0,1,1,-2.739,0A2.739,2.739,0,1,1,2.739,0" stroke="#4c78a8" stroke-width="2" opacity="0.7"/><path aria-label="Predicted median_house_value: 217484.267013; Residuals: −22115.7329872" role="graphics-symbol" aria-roledescription="point" transform="translate(37.63411115825201,45.897528796579216)" d="M2.739,0A2.739,2.739,0,1,1,-2.739,0A2.739,2.739,0,1,1,2.739,0" stroke="#4c78a8" stroke-width="2" opacity="0.7"/><path aria-label="Predicted median_house_value: 238879.742604; Residuals: −217420.257396" role="graphics-symbol" aria-roledescription="point" transform="translate(44.01924965149403,97.97873530562626)" d="M2.739,0A2.739,2.739,0,1,1,-2.739,0A2.739,2.739,0,1,1,2.739,0" stroke="#4c78a8" stroke-width="2" opacity="0.7"/><path aria-label="Predicted median_house_value: 133810.134862; Residuals: −19689.8651384" role="graphics-symbol" aria-roledescription="point" transform="translate(12.662900781865572,45.250630703578246)" d="M2.739,0A2.739,2.739,0,1,1,-2.739,0A2.739,2.739,0,1,1,2.739,0" stroke="#4c78a8" stroke-width="2" opacity="0.7"/><path aria-label="Predicted median_house_value: 265734.955318; Residuals: 98334.9553178" role="graphics-symbol" aria-roledescription="point" transform="translate(52.03375962179525,13.777345248574937)" d="M2.739,0A2.739,2.739,0,1,1,-2.739,0A2.739,2.739,0,1,1,2.739,0" stroke="#4c78a8" stroke-width="2" opacity="0.7"/><path aria-label="Predicted median_house_value: 149499.03464; Residuals: 75899.0346399" role="graphics-symbol" aria-roledescription="point" transform="translate(17.345002727438025,19.760257429349245)" d="M2.739,0A2.739,2.739,0,1,1,-2.739,0A2.739,2.739,0,1,1,2.739,0" stroke="#4c78a8" stroke-width="2" opacity="0.7"/><path aria-label="Predicted median_house_value: 198891.874849; Residuals: −20508.1251512" role="graphics-symbol" aria-roledescription="point" transform="translate(32.08550821261895,45.46883337364775)" d="M2.739,0A2.739,2.739,0,1,1,-2.739,0A2.739,2.739,0,1,1,2.739,0" stroke="#4c78a8" stroke-width="2" opacity="0.7"/><path aria-label="Predicted median_house_value: 195026.129943; Residuals: 33926.1299434" role="graphics-symbol" aria-roledescription="point" transform="translate(30.93183829322989,30.953032015084432)" d="M2.739,0A2.739,2.739,0,1,1,-2.739,0A2.739,2.739,0,1,1,2.739,0" stroke="#4c78a8" stroke-width="2" opacity="0.7"/><path aria-label="Predicted median_house_value: 174036.473893; Residuals: −31863.5261067" role="graphics-symbol" aria-roledescription="point" transform="translate(24.667810170313352,48.496940295121796)" d="M2.739,0A2.739,2.739,0,1,1,-2.739,0A2.739,2.739,0,1,1,2.739,0" stroke="#4c78a8" stroke-width="2" opacity="0.7"/><path aria-label="Predicted median_house_value: 214467.814549; Residuals: 108267.814549" role="graphics-symbol" aria-roledescription="point" transform="translate(36.73389902418329,11.12858278699321)" d="M2.739,0A2.739,2.739,0,1,1,-2.739,0A2.739,2.739,0,1,1,2.739,0" stroke="#4c78a8" stroke-width="2" opacity="0.7"/><path aria-label="Predicted median_house_value: 198368.911523; Residuals: 116368.911523" role="graphics-symbol" aria-roledescription="point" transform="translate(31.929438147766525,8.968290260566487)" d="M2.739,0A2.739,2.739,0,1,1,-2.739,0A2.739,2.739,0,1,1,2.739,0" stroke="#4c78a8" stroke-width="2" opacity="0.7"/><path aria-label="Predicted median_house_value: 154029.988896; Residuals: 5429.98889593" role="graphics-symbol" aria-roledescription="point" transform="translate(18.697193769319345,38.55200296108527)" d="M2.739,0A2.739,2.739,0,1,1,-2.739,0A2.739,2.739,0,1,1,2.739,0" stroke="#4c78a8" stroke-width="2" opacity="0.7"/><path aria-label="Predicted median_house_value: 197339.719697; Residuals: 1539.71969742" role="graphics-symbol" aria-roledescription="point" transform="translate(31.622292260136973,39.58940808068923)" d="M2.739,0A2.739,2.739,0,1,1,-2.739,0A2.739,2.739,0,1,1,2.739,0" stroke="#4c78a8" stroke-width="2" opacity="0.7"/><path aria-label="Predicted median_house_value: 210827.9898; Residuals: 99027.9898002" role="graphics-symbol" aria-roledescription="point" transform="translate(35.64765137281047,13.592536053280998)" d="M2.739,0A2.739,2.739,0,1,1,-2.739,0A2.739,2.739,0,1,1,2.739,0" stroke="#4c78a8" stroke-width="2" opacity="0.7"/><path aria-label="Predicted median_house_value: 227290.875301; Residuals: 3890.87530095" role="graphics-symbol" aria-roledescription="point" transform="translate(40.560737014364506,38.962433253078956)" d="M2.739,0A2.739,2.739,0,1,1,-2.739,0A2.739,2.739,0,1,1,2.739,0" stroke="#4c78a8" stroke-width="2" opacity="0.7"/><path aria-label="Predicted median_house_value: 197942.173449; Residuals: −120657.826551" role="graphics-symbol" aria-roledescription="point" transform="translate(31.802084974846963,72.17542041362552)" d="M2.739,0A2.739,2.739,0,1,1,-2.739,0A2.739,2.739,0,1,1,2.739,0" stroke="#4c78a8" stroke-width="2" opacity="0.7"/><path aria-label="Predicted median_house_value: 294238.548435; Residuals: −205762.451565" role="graphics-symbol" aria-roledescription="point" transform="translate(60.54020243651131,94.86998708395572)" d="M2.739,0A2.739,2.739,0,1,1,-2.739,0A2.739,2.739,0,1,1,2.739,0" stroke="#4c78a8" stroke-width="2" opacity="0.7"/><path aria-label="Predicted median_house_value: 304639.243062; Residuals: 54339.2430616" role="graphics-symbol" aria-roledescription="point" transform="translate(63.644123886296136,25.509535183582408)" d="M2.739,0A2.739,2.739,0,1,1,-2.739,0A2.739,2.739,0,1,1,2.739,0" stroke="#4c78a8" stroke-width="2" opacity="0.7"/><path aria-label="Predicted median_house_value: 171367.269078; Residuals: −125732.730922" role="graphics-symbol" aria-roledescription="point" transform="translate(23.87122855930662,73.52872824595507)" d="M2.739,0A2.739,2.739,0,1,1,-2.739,0A2.739,2.739,0,1,1,2.739,0" stroke="#4c78a8" stroke-width="2" opacity="0.7"/><path aria-label="Predicted median_house_value: 183705.019863; Residuals: 27605.0198634" role="graphics-symbol" aria-roledescription="point" transform="translate(27.553233529304805,32.63866136976806)" d="M2.739,0A2.739,2.739,0,1,1,-2.739,0A2.739,2.739,0,1,1,2.739,0" stroke="#4c78a8" stroke-width="2" opacity="0.7"/><path aria-label="Predicted median_house_value: 175274.851049; Residuals: 43674.8510491" role="graphics-symbol" aria-roledescription="point" transform="translate(25.03738408388387,28.35337305356488)" d="M2.739,0A2.739,2.739,0,1,1,-2.739,0A2.739,2.739,0,1,1,2.739,0" stroke="#4c78a8" stroke-width="2" opacity="0.7"/><path aria-label="Predicted median_house_value: 127325.38962; Residuals: 75425.3896199" role="graphics-symbol" aria-roledescription="point" transform="translate(10.727631977695617,19.886562768037326)" d="M2.739,0A2.739,2.739,0,1,1,-2.739,0A2.739,2.739,0,1,1,2.739,0" stroke="#4c78a8" stroke-width="2" opacity="0.7"/><path aria-label="Predicted median_house_value: 278545.46495; Residuals: 26845.4649502" role="graphics-symbol" aria-roledescription="point" transform="translate(55.85685193042002,32.841209346613375)" d="M2.739,0A2.739,2.739,0,1,1,-2.739,0A2.739,2.739,0,1,1,2.739,0" stroke="#4c78a8" stroke-width="2" opacity="0.7"/><path aria-label="Predicted median_house_value: 182445.724174; Residuals: −39054.2758255" role="graphics-symbol" aria-roledescription="point" transform="translate(27.177416813140194,50.414473553468405)" d="M2.739,0A2.739,2.739,0,1,1,-2.739,0A2.739,2.739,0,1,1,2.739,0" stroke="#4c78a8" stroke-width="2" opacity="0.7"/><path aria-label="Predicted median_house_value: 203209.460068; Residuals: −296791.539932" role="graphics-symbol" aria-roledescription="point" transform="translate(33.37402266804048,119.14441064857994)" d="M2.739,0A2.739,2.739,0,1,1,-2.739,0A2.739,2.739,0,1,1,2.739,0" stroke="#4c78a8" stroke-width="2" opacity="0.7"/><path aria-label="Predicted median_house_value: 128270.907313; Residuals: 46770.9073132" role="graphics-symbol" aria-roledescription="point" transform="translate(11.009806654948784,27.52775804982158)" d="M2.739,0A2.739,2.739,0,1,1,-2.739,0A2.739,2.739,0,1,1,2.739,0" stroke="#4c78a8" stroke-width="2" opacity="0.7"/><path aria-label="Predicted median_house_value: 292640.372511; Residuals: 37740.3725111" role="graphics-symbol" aria-roledescription="point" transform="translate(60.06325231832232,29.93590066371273)" d="M2.739,0A2.739,2.739,0,1,1,-2.739,0A2.739,2.739,0,1,1,2.739,0" stroke="#4c78a8" stroke-width="2" opacity="0.7"/><path aria-label="Predicted median_house_value: 178550.693323; Residuals: 34750.6933229" role="graphics-symbol" aria-roledescription="point" transform="translate(26.015006970119394,30.733148447239213)" d="M2.739,0A2.739,2.739,0,1,1,-2.739,0A2.739,2.739,0,1,1,2.739,0" stroke="#4c78a8" stroke-width="2" opacity="0.7"/><path aria-label="Predicted median_house_value: 254430.580064; Residuals: −43669.4199358" role="graphics-symbol" aria-roledescription="point" transform="translate(48.66014909994544,51.64517864954383)" d="M2.739,0A2.739,2.739,0,1,1,-2.739,0A2.739,2.739,0,1,1,2.739,0" stroke="#4c78a8" stroke-width="2" opacity="0.7"/><path aria-label="Predicted median_house_value: 91378.9824477; Residuals: −6121.01755232" role="graphics-symbol" aria-roledescription="point" transform="translate(0,41.632271347284096)" d="M2.739,0A2.739,2.739,0,1,1,-2.739,0A2.739,2.739,0,1,1,2.739,0" stroke="#4c78a8" stroke-width="2" opacity="0.7"/><path aria-label="Predicted median_house_value: 118773.893314; Residuals: 50773.893314" role="graphics-symbol" aria-roledescription="point" transform="translate(8.175574277228922,26.46029511626596)" d="M2.739,0A2.739,2.739,0,1,1,-2.739,0A2.739,2.739,0,1,1,2.739,0" stroke="#4c78a8" stroke-width="2" opacity="0.7"/><path aria-label="Predicted median_house_value: 181094.38694; Residuals: 60994.3869403" role="graphics-symbol" aria-roledescription="point" transform="translate(26.77413176556155,23.734830149266433)" d="M2.739,0A2.739,2.739,0,1,1,-2.739,0A2.739,2.739,0,1,1,2.739,0" stroke="#4c78a8" stroke-width="2" opacity="0.7"/><path aria-label="Predicted median_house_value: 226449.950273; Residuals: −4750.04972717" role="graphics-symbol" aria-roledescription="point" transform="translate(40.30977635008182,41.26667992724429)" d="M2.739,0A2.739,2.739,0,1,1,-2.739,0A2.739,2.739,0,1,1,2.739,0" stroke="#4c78a8" stroke-width="2" opacity="0.7"/><path aria-label="Predicted median_house_value: 261647.473962; Residuals: −4752.52603774" role="graphics-symbol" aria-roledescription="point" transform="translate(50.81391599490878,41.26734027673184)" d="M2.739,0A2.739,2.739,0,1,1,-2.739,0A2.739,2.739,0,1,1,2.739,0" stroke="#4c78a8" stroke-width="2" opacity="0.7"/><path aria-label="Predicted median_house_value: 134592.487997; Residuals: 20892.4879972" role="graphics-symbol" aria-roledescription="point" transform="translate(12.896381598884778,34.42866986741445)" d="M2.739,0A2.739,2.739,0,1,1,-2.739,0A2.739,2.739,0,1,1,2.739,0" stroke="#4c78a8" stroke-width="2" opacity="0.7"/><path aria-label="Predicted median_house_value: 122045.551881; Residuals: −40454.4481189" role="graphics-symbol" aria-roledescription="point" transform="translate(9.151948602945634,50.787852831702295)" d="M2.739,0A2.739,2.739,0,1,1,-2.739,0A2.739,2.739,0,1,1,2.739,0" stroke="#4c78a8" stroke-width="2" opacity="0.7"/><path aria-label="Predicted median_house_value: 216488.54484; Residuals: −28211.4551598" role="graphics-symbol" aria-roledescription="point" transform="translate(37.33695375477301,47.52305470927252)" d="M2.739,0A2.739,2.739,0,1,1,-2.739,0A2.739,2.739,0,1,1,2.739,0" stroke="#4c78a8" stroke-width="2" opacity="0.7"/><path aria-label="Predicted median_house_value: 197147.269193; Residuals: −77852.7308065" role="graphics-symbol" aria-roledescription="point" transform="translate(31.564858476271294,60.76072821507533)" d="M2.739,0A2.739,2.739,0,1,1,-2.739,0A2.739,2.739,0,1,1,2.739,0" stroke="#4c78a8" stroke-width="2" opacity="0.7"/><path aria-label="Predicted median_house_value: 180399.891643; Residuals: −96900.1083566" role="graphics-symbol" aria-roledescription="point" transform="translate(26.566870719437535,65.84002889509452)" d="M2.739,0A2.739,2.739,0,1,1,-2.739,0A2.739,2.739,0,1,1,2.739,0" stroke="#4c78a8" stroke-width="2" opacity="0.7"/><path aria-label="Predicted median_house_value: 147515.957708; Residuals: 50415.957708" role="graphics-symbol" aria-roledescription="point" transform="translate(16.753185041517668,26.555744611211807)" d="M2.739,0A2.739,2.739,0,1,1,-2.739,0A2.739,2.739,0,1,1,2.739,0" stroke="#4c78a8" stroke-width="2" opacity="0.7"/><path aria-label="Predicted median_house_value: 135153.104683; Residuals: 86553.1046826" role="graphics-symbol" aria-roledescription="point" transform="translate(13.063688708406566,16.919172084637573)" d="M2.739,0A2.739,2.739,0,1,1,-2.739,0A2.739,2.739,0,1,1,2.739,0" stroke="#4c78a8" stroke-width="2" opacity="0.7"/><path aria-label="Predicted median_house_value: 212254.633753; Residuals: 46754.6337534" role="graphics-symbol" aria-roledescription="point" transform="translate(36.07341050972786,27.532097665766678)" d="M2.739,0A2.739,2.739,0,1,1,-2.739,0A2.739,2.739,0,1,1,2.739,0" stroke="#4c78a8" stroke-width="2" opacity="0.7"/><path aria-label="Predicted median_house_value: 300886.458235; Residuals: 121686.458235" role="graphics-symbol" aria-roledescription="point" transform="translate(62.5241651009152,7.550277804111323)" d="M2.739,0A2.739,2.739,0,1,1,-2.739,0A2.739,2.739,0,1,1,2.739,0" stroke="#4c78a8" stroke-width="2" opacity="0.7"/><path aria-label="Predicted median_house_value: 151436.090799; Residuals: −48563.9092008" role="graphics-symbol" aria-roledescription="point" transform="translate(17.923086247651373,52.95037578686889)" d="M2.739,0A2.739,2.739,0,1,1,-2.739,0A2.739,2.739,0,1,1,2.739,0" stroke="#4c78a8" stroke-width="2" opacity="0.7"/><path aria-label="Predicted median_house_value: 275746.56523; Residuals: 84746.5652297" role="graphics-symbol" aria-roledescription="point" transform="translate(55.0215649433299,17.40091593873583)" d="M2.739,0A2.739,2.739,0,1,1,-2.739,0A2.739,2.739,0,1,1,2.739,0" stroke="#4c78a8" stroke-width="2" opacity="0.7"/><path aria-label="Predicted median_house_value: 109753.821868; Residuals: −56346.1781319" role="graphics-symbol" aria-roledescription="point" transform="translate(5.483677798654466,55.025647501840446)" d="M2.739,0A2.739,2.739,0,1,1,-2.739,0A2.739,2.739,0,1,1,2.739,0" stroke="#4c78a8" stroke-width="2" opacity="0.7"/><path aria-label="Predicted median_house_value: 198979.732688; Residuals: −65120.2673124" role="graphics-symbol" aria-roledescription="point" transform="translate(32.11172798351415,57.36540461664539)" d="M2.739,0A2.739,2.739,0,1,1,-2.739,0A2.739,2.739,0,1,1,2.739,0" stroke="#4c78a8" stroke-width="2" opacity="0.7"/><path aria-label="Predicted median_house_value: 159803.504014; Residuals: 3703.50401437" role="graphics-symbol" aria-roledescription="point" transform="translate(20.42020728529002,39.01239892950232)" d="M2.739,0A2.739,2.739,0,1,1,-2.739,0A2.739,2.739,0,1,1,2.739,0" stroke="#4c78a8" stroke-width="2" opacity="0.7"/><path aria-label="Predicted median_house_value: 267341.498655; Residuals: −148958.501345" role="graphics-symbol" aria-roledescription="point" transform="translate(52.51320686102188,79.72226702529387)" d="M2.739,0A2.739,2.739,0,1,1,-2.739,0A2.739,2.739,0,1,1,2.739,0" stroke="#4c78a8" stroke-width="2" opacity="0.7"/><path aria-label="Predicted median_house_value: 113473.137042; Residuals: −41526.8629578" role="graphics-symbol" aria-roledescription="point" transform="translate(6.5936480998848435,51.07383012207434)" d="M2.739,0A2.739,2.739,0,1,1,-2.739,0A2.739,2.739,0,1,1,2.739,0" stroke="#4c78a8" stroke-width="2" opacity="0.7"/><path aria-label="Predicted median_house_value: 204234.468187; Residuals: 20434.4681867" role="graphics-symbol" aria-roledescription="point" transform="translate(33.679919995151224,34.55080848355252)" d="M2.739,0A2.739,2.739,0,1,1,-2.739,0A2.739,2.739,0,1,1,2.739,0" stroke="#4c78a8" stroke-width="2" opacity="0.7"/><path aria-label="Predicted median_house_value: 296238.360194; Residuals: 59738.3601936" role="graphics-symbol" aria-roledescription="point" transform="translate(61.137014364506925,24.069770615045115)" d="M2.739,0A2.739,2.739,0,1,1,-2.739,0A2.739,2.739,0,1,1,2.739,0" stroke="#4c78a8" stroke-width="2" opacity="0.7"/><path aria-label="Predicted median_house_value: 180165.604073; Residuals: 80765.6040734" role="graphics-symbol" aria-roledescription="point" transform="translate(26.49695133038366,18.46250558043411)" d="M2.739,0A2.739,2.739,0,1,1,-2.739,0A2.739,2.739,0,1,1,2.739,0" stroke="#4c78a8" stroke-width="2" opacity="0.7"/><path aria-label="Predicted median_house_value: 302417.694853; Residuals: 10617.694853" role="graphics-symbol" aria-roledescription="point" transform="translate(62.98113825080308,37.16861470587989)" d="M2.739,0A2.739,2.739,0,1,1,-2.739,0A2.739,2.739,0,1,1,2.739,0" stroke="#4c78a8" stroke-width="2" opacity="0.7"/><path aria-label="Predicted median_house_value: 191336.100716; Residuals: −29863.8992844" role="graphics-symbol" aria-roledescription="point" transform="translate(29.830607915631248,47.963706475849754)" d="M2.739,0A2.739,2.739,0,1,1,-2.739,0A2.739,2.739,0,1,1,2.739,0" stroke="#4c78a8" stroke-width="2" opacity="0.7"/><path aria-label="Predicted median_house_value: 134362.384134; Residuals: −107937.615866" role="graphics-symbol" aria-roledescription="point" transform="translate(12.827710770349716,68.78336423099205)" d="M2.739,0A2.739,2.739,0,1,1,-2.739,0A2.739,2.739,0,1,1,2.739,0" stroke="#4c78a8" stroke-width="2" opacity="0.7"/><path aria-label="Predicted median_house_value: 255735.896526; Residuals: −65364.1034742" role="graphics-symbol" aria-roledescription="point" transform="translate(49.04969998181707,57.43042759312797)" d="M2.739,0A2.739,2.739,0,1,1,-2.739,0A2.739,2.739,0,1,1,2.739,0" stroke="#4c78a8" stroke-width="2" opacity="0.7"/><path aria-label="Predicted median_house_value: 313546.354429; Residuals: 25446.3544291" role="graphics-symbol" aria-roledescription="point" transform="translate(66.30230923086246,33.21430548558237)" d="M2.739,0A2.739,2.739,0,1,1,-2.739,0A2.739,2.739,0,1,1,2.739,0" stroke="#4c78a8" stroke-width="2" opacity="0.7"/><path aria-label="Predicted median_house_value: 215107.92166; Residuals: 18907.9216597" role="graphics-symbol" aria-roledescription="point" transform="translate(36.924928783562635,34.957887557404675)" d="M2.739,0A2.739,2.739,0,1,1,-2.739,0A2.739,2.739,0,1,1,2.739,0" stroke="#4c78a8" stroke-width="2" opacity="0.7"/><path aria-label="Predicted median_house_value: 177739.054241; Residuals: 83339.054241" role="graphics-symbol" aria-roledescription="point" transform="translate(25.772786229468448,17.77625220240376)" d="M2.739,0A2.739,2.739,0,1,1,-2.739,0A2.739,2.739,0,1,1,2.739,0" stroke="#4c78a8" stroke-width="2" opacity="0.7"/><path aria-label="Predicted median_house_value: 246996.133423; Residuals: 18096.1334226" role="graphics-symbol" aria-roledescription="point" transform="translate(46.441457058003515,35.17436442064736)" d="M2.739,0A2.739,2.739,0,1,1,-2.739,0A2.739,2.739,0,1,1,2.739,0" stroke="#4c78a8" stroke-width="2" opacity="0.7"/><path aria-label="Predicted median_house_value: 204661.206261; Residuals: 67461.2062606" role="graphics-symbol" aria-roledescription="point" transform="translate(33.807273168070786,22.010344997160175)" d="M2.739,0A2.739,2.739,0,1,1,-2.739,0A2.739,2.739,0,1,1,2.739,0" stroke="#4c78a8" stroke-width="2" opacity="0.7"/><path aria-label="Predicted median_house_value: 212806.883026; Residuals: −16593.1169744" role="graphics-symbol" aria-roledescription="point" transform="translate(36.238220498212016,44.42483119318048)" d="M2.739,0A2.739,2.739,0,1,1,-2.739,0A2.739,2.739,0,1,1,2.739,0" stroke="#4c78a8" stroke-width="2" opacity="0.7"/><path aria-label="Predicted median_house_value: 143884.500373; Residuals: −20215.4996274" role="graphics-symbol" aria-roledescription="point" transform="translate(15.6694345111825,45.39079990064223)" d="M2.739,0A2.739,2.739,0,1,1,-2.739,0A2.739,2.739,0,1,1,2.739,0" stroke="#4c78a8" stroke-width="2" opacity="0.7"/><path aria-label="Predicted median_house_value: 99294.5553492; Residuals: −63205.4446508" role="graphics-symbol" aria-roledescription="point" transform="translate(2.3622765016061584,56.85478524021532)" d="M2.739,0A2.739,2.739,0,1,1,-2.739,0A2.739,2.739,0,1,1,2.739,0" stroke="#4c78a8" stroke-width="2" opacity="0.7"/><path aria-label="Predicted median_house_value: 217994.679219; Residuals: −47205.320781" role="graphics-symbol" aria-roledescription="point" transform="translate(37.786435541547974,52.58808554161321)" d="M2.739,0A2.739,2.739,0,1,1,-2.739,0A2.739,2.739,0,1,1,2.739,0" stroke="#4c78a8" stroke-width="2" opacity="0.7"/><path aria-label="Predicted median_house_value: 262392.173738; Residuals: −91207.8262616" role="graphics-symbol" aria-roledescription="point" transform="translate(51.03615976725862,64.32208700309288)" d="M2.739,0A2.739,2.739,0,1,1,-2.739,0A2.739,2.739,0,1,1,2.739,0" stroke="#4c78a8" stroke-width="2" opacity="0.7"/><path aria-label="Predicted median_house_value: 147846.47053; Residuals: −48153.52947" role="graphics-symbol" aria-roledescription="point" transform="translate(16.851821322504396,52.84094119201248)" d="M2.739,0A2.739,2.739,0,1,1,-2.739,0A2.739,2.739,0,1,1,2.739,0" stroke="#4c78a8" stroke-width="2" opacity="0.7"/><path aria-label="Predicted median_house_value: 183491.650826; Residuals: 113391.650826" role="graphics-symbol" aria-roledescription="point" transform="translate(27.489556942845017,9.762226446297584)" d="M2.739,0A2.739,2.739,0,1,1,-2.739,0A2.739,2.739,0,1,1,2.739,0" stroke="#4c78a8" stroke-width="2" opacity="0.7"/><path aria-label="Predicted median_house_value: 436513.859039; Residuals: −63487.1409615" role="graphics-symbol" aria-roledescription="point" transform="translate(103,56.929904256389975)" d="M2.739,0A2.739,2.739,0,1,1,-2.739,0A2.739,2.739,0,1,1,2.739,0" stroke="#4c78a8" stroke-width="2" opacity="0.7"/><path aria-label="Predicted median_house_value: 298330.213497; Residuals: −132669.786503" role="graphics-symbol" aria-roledescription="point" transform="translate(61.7612946239166,75.3786097340368)" d="M2.739,0A2.739,2.739,0,1,1,-2.739,0A2.739,2.739,0,1,1,2.739,0" stroke="#4c78a8" stroke-width="2" opacity="0.7"/><path aria-label="Predicted median_house_value: 180399.891643; Residuals: 67899.8916434" role="graphics-symbol" aria-roledescription="point" transform="translate(26.566870719437535,21.89336222842786)" d="M2.739,0A2.739,2.739,0,1,1,-2.739,0A2.739,2.739,0,1,1,2.739,0" stroke="#4c78a8" stroke-width="2" opacity="0.7"/><path aria-label="Predicted median_house_value: 333874.984835; Residuals: −166126.015165" role="graphics-symbol" aria-roledescription="point" transform="translate(72.36906479180556,84.30027071061029)" d="M2.739,0A2.739,2.739,0,1,1,-2.739,0A2.739,2.739,0,1,1,2.739,0" stroke="#4c78a8" stroke-width="2" opacity="0.7"/><path aria-label="Predicted median_house_value: 159113.192424; Residuals: 55713.1924241" role="graphics-symbol" aria-roledescription="point" transform="translate(20.21419479968483,25.143148686901732)" d="M2.739,0A2.739,2.739,0,1,1,-2.739,0A2.739,2.739,0,1,1,2.739,0" stroke="#4c78a8" stroke-width="2" opacity="0.7"/><path aria-label="Predicted median_house_value: 170342.260959; Residuals: −33857.7390412" role="graphics-symbol" aria-roledescription="point" transform="translate(23.56533123219589,49.02873041098247)" d="M2.739,0A2.739,2.739,0,1,1,-2.739,0A2.739,2.739,0,1,1,2.739,0" stroke="#4c78a8" stroke-width="2" opacity="0.7"/><path aria-label="Predicted median_house_value: 296723.67016; Residuals: −28176.3298399" role="graphics-symbol" aria-roledescription="point" transform="translate(61.281847384689975,47.51368795731784)" d="M2.739,0A2.739,2.739,0,1,1,-2.739,0A2.739,2.739,0,1,1,2.739,0" stroke="#4c78a8" stroke-width="2" opacity="0.7"/><path aria-label="Predicted median_house_value: 256610.291207; Residuals: −197089.708793" role="graphics-symbol" aria-roledescription="point" transform="translate(49.31064913025031,92.55725567819982)" d="M2.739,0A2.739,2.739,0,1,1,-2.739,0A2.739,2.739,0,1,1,2.739,0" stroke="#4c78a8" stroke-width="2" opacity="0.7"/><path aria-label="Predicted median_house_value: 164112.72182; Residuals: 54512.7218202" role="graphics-symbol" aria-roledescription="point" transform="translate(21.706224619673915,25.463274181291883)" d="M2.739,0A2.739,2.739,0,1,1,-2.739,0A2.739,2.739,0,1,1,2.739,0" stroke="#4c78a8" stroke-width="2" opacity="0.7"/><path aria-label="Predicted median_house_value: 386342.849401; Residuals: 38342.8494007" role="graphics-symbol" aria-roledescription="point" transform="translate(88.02726225831869,29.775240159826577)" d="M2.739,0A2.739,2.739,0,1,1,-2.739,0A2.739,2.739,0,1,1,2.739,0" stroke="#4c78a8" stroke-width="2" opacity="0.7"/><path aria-label="Predicted median_house_value: 120213.088387; Residuals: 59813.088387" role="graphics-symbol" aria-roledescription="point" transform="translate(8.60507909570277,24.049843096798902)" d="M2.739,0A2.739,2.739,0,1,1,-2.739,0A2.739,2.739,0,1,1,2.739,0" stroke="#4c78a8" stroke-width="2" opacity="0.7"/><path aria-label="Predicted median_house_value: 201795.367234; Residuals: −19504.6327655" role="graphics-symbol" aria-roledescription="point" transform="translate(32.95200921267956,45.201235404141535)" d="M2.739,0A2.739,2.739,0,1,1,-2.739,0A2.739,2.739,0,1,1,2.739,0" stroke="#4c78a8" stroke-width="2" opacity="0.7"/><path aria-label="Predicted median_house_value: 240728.940924; Residuals: 53228.9409244" role="graphics-symbol" aria-roledescription="point" transform="translate(44.57111340081217,25.805615753481565)" d="M2.739,0A2.739,2.739,0,1,1,-2.739,0A2.739,2.739,0,1,1,2.739,0" stroke="#4c78a8" stroke-width="2" opacity="0.7"/><path aria-label="Predicted median_house_value: 168936.535539; Residuals: −10863.4644613" role="graphics-symbol" aria-roledescription="point" transform="translate(23.145814897872597,42.89692385635338)" d="M2.739,0A2.739,2.739,0,1,1,-2.739,0A2.739,2.739,0,1,1,2.739,0" stroke="#4c78a8" stroke-width="2" opacity="0.7"/><path aria-label="Predicted median_house_value: 323867.55863; Residuals: 21967.5586299" role="graphics-symbol" aria-roledescription="point" transform="translate(69.38250803078974,34.14198436535405)" d="M2.739,0A2.739,2.739,0,1,1,-2.739,0A2.739,2.739,0,1,1,2.739,0" stroke="#4c78a8" stroke-width="2" opacity="0.7"/><path aria-label="Predicted median_house_value: 244540.297644; Residuals: 91340.2976439" role="graphics-symbol" aria-roledescription="point" transform="translate(45.70855203345657,15.642587294951106)" d="M2.739,0A2.739,2.739,0,1,1,-2.739,0A2.739,2.739,0,1,1,2.739,0" stroke="#4c78a8" stroke-width="2" opacity="0.7"/></g></g><path class="foreground" aria-hidden="true" d="" display="none"/></g></g></g></svg>